<svg viewBox="0 0 48 48" width="48" height="48" xmlns="http://www.w3.org/2000/svg" fill="none"><g id="SVGRepo_bgCarrier" stroke-width="0"></g><g id="SVGRepo_tracerCarrier" stroke-linecap="round" stroke-linejoin="round"></g><g id="SVGRepo_iconCarrier"><title>70 Basic icons by Xicons.co</title><path d="M43,4H5A4,4,0,0,0,1,8V33a4,4,0,0,0,4,4H16l6.38,8.78a2,2,0,0,0,3.23,0L32,37H43a4,4,0,0,0,4-4V8A4,4,0,0,0,43,4Z" fill="#252320"></path><path d="M24,18H10a2,2,0,0,1,0-4H24A2,2,0,0,1,24,18Z" fill="#a09d96"></path><path d="M39,27H10a2,2,0,0,1,0-4H39A2,2,0,0,1,39,27Z" fill="#a09d96"></path></g></svg>